<?xml version="1.0" encoding="iso-8859-1"?>
<!-- Generator: Adobe Illustrator 19.0.0, SVG Export Plug-In . SVG Version: 6.00 Build 0)  -->
<svg version="1.1" id="Capa_1" xmlns="http://www.w3.org/2000/svg" xmlns:xlink="http://www.w3.org/1999/xlink" x="0px" y="0px"
	 viewBox="0 0 512 512" style="enable-background:new 0 0 512 512;" xml:space="preserve">
<g>
	<path style="fill:#FFAF46;" d="M394.778,117.222c36.864,36.762,57.557,86.707,57.489,138.778h51.2
		c0.085-65.647-26.001-128.623-72.482-174.985L394.778,117.222z M464.58,180.224c-3.132-8.644-6.801-17.084-10.991-25.267
		C457.779,163.14,461.449,171.58,464.58,180.224z"/>
	<path style="fill:#FFAF46;" d="M394.778,117.222l36.207-36.207C384.623,34.534,321.647,8.448,256,8.533v51.2
		C308.07,59.665,358.016,80.358,394.778,117.222z M349.909,54.929c-8.329-3.9-16.896-7.27-25.643-10.095
		C333.013,47.659,341.581,51.029,349.909,54.929z"/>
	<path style="fill:#FFAF46;" d="M256,59.733v-51.2C190.353,8.448,127.377,34.534,81.015,81.015l36.207,36.207
		C153.984,80.358,203.93,59.665,256,59.733z M154.957,58.411c8.183-4.19,16.623-7.859,25.267-10.991
		C171.58,50.551,163.14,54.221,154.957,58.411z"/>
	<path style="fill:#FFAF46;" d="M394.778,394.778l36.207,36.207c46.481-46.362,72.567-109.338,72.482-174.985h-51.2
		C452.335,308.07,431.642,358.016,394.778,394.778z M467.166,324.267c-2.825,8.747-6.195,17.314-10.095,25.643
		C460.971,341.581,464.341,333.013,467.166,324.267z"/>
	<path style="fill:#FFAF46;" d="M117.222,117.222L81.015,81.015C34.534,127.377,8.448,190.353,8.533,256h51.2
		C59.665,203.93,80.358,153.984,117.222,117.222z M44.834,187.733c2.833-8.738,6.204-17.289,10.095-25.6
		C51.038,170.445,47.667,178.995,44.834,187.733z"/>
	<path style="fill:#FFAF46;" d="M117.222,394.778l-36.207,36.207c46.362,46.481,109.338,72.567,174.985,72.482v-51.2
		C203.93,452.335,153.984,431.642,117.222,394.778z M162.133,457.071c8.311,3.891,16.862,7.262,25.6,10.095
		C178.995,464.333,170.445,460.962,162.133,457.071z"/>
	<path style="fill:#FFAF46;" d="M59.733,256h-51.2c-0.085,65.647,26.001,128.623,72.482,174.985l36.207-36.207
		C80.358,358.016,59.665,308.07,59.733,256z M47.42,331.776c3.132,8.644,6.801,17.084,10.991,25.267
		C54.221,348.86,50.551,340.42,47.42,331.776z"/>
	<path style="fill:#FFAF46;" d="M256,452.267v51.2c65.647,0.085,128.623-26.001,174.985-72.482l-36.207-36.207
		C358.016,431.642,308.07,452.335,256,452.267z M357.043,453.589c-8.183,4.19-16.623,7.859-25.267,10.991
		C340.42,461.449,348.86,457.779,357.043,453.589z"/>
	<path style="fill:#FFAF46;" d="M117.222,117.222L117.222,117.222c-76.638,76.646-76.638,200.909,0,277.555l0,0
		c76.646,76.638,200.909,76.638,277.555,0l0,0c76.638-76.646,76.638-200.909,0-277.555l0,0
		C318.131,40.585,193.869,40.585,117.222,117.222z M264.533,93.867v42.667h34.133c28.279,0,51.2,22.921,51.2,51.2V204.8
		c0,28.279-22.921,51.2-51.2,51.2c28.279,0,51.2,22.921,51.2,51.2v17.067c0,28.279-22.921,51.2-51.2,51.2h-34.133l0,0H230.4l0,0
		h-17.067V136.533H230.4l0,0h34.133V93.867z"/>
	<path style="fill:#FFAF46;" d="M213.333,136.533V256h85.333c28.279,0,51.2-22.921,51.2-51.2v-17.067
		c0-28.279-22.921-51.2-51.2-51.2H213.333z"/>
	<path style="fill:#FFAF46;" d="M213.333,375.467h85.333c28.279,0,51.2-22.921,51.2-51.2V307.2c0-28.279-22.921-51.2-51.2-51.2
		h-85.333V375.467z"/>
</g>
<g>
	<path style="fill:#231F20;" d="M256,0C114.611,0,0,114.611,0,256s114.611,256,256,256s256-114.611,256-256
		C511.838,114.679,397.321,0.162,256,0z M256,443.733C152.32,443.733,68.267,359.68,68.267,256S152.32,68.267,256,68.267
		S443.733,152.32,443.733,256C443.614,359.637,359.637,443.614,256,443.733z M394.573,105.361
		c-35.575-32.845-81.664-51.959-130.039-53.948V17.28c57.421,2.014,112.179,24.738,154.163,63.957L394.573,105.361z M247.467,51.413
		c-48.375,1.988-94.464,21.103-130.039,53.948L93.303,81.237c41.984-39.219,96.742-61.943,154.163-63.957V51.413z M105.361,117.427
		c-32.845,35.575-51.959,81.664-53.948,130.039H17.28c2.014-57.421,24.738-112.179,63.957-154.163L105.361,117.427z M51.413,264.533
		c1.988,48.375,21.103,94.464,53.948,130.039l-24.124,24.124c-39.219-41.984-61.943-96.742-63.957-154.163H51.413z M117.427,406.639
		c35.575,32.845,81.664,51.959,130.039,53.948v34.133c-57.429-2.031-112.179-24.764-154.163-64L117.427,406.639z M264.533,460.587
		c48.375-1.988,94.464-21.103,130.039-53.948l24.124,24.124c-41.984,39.219-96.742,61.943-154.163,63.957L264.533,460.587
		L264.533,460.587z M406.639,394.573c32.845-35.575,51.959-81.664,53.948-130.039h34.133c-2.031,57.429-24.764,112.179-64,154.163
		L406.639,394.573z M460.587,247.467c-1.988-48.375-21.103-94.464-53.948-130.039l24.124-24.124
		c39.219,41.984,61.943,96.742,63.957,154.163H460.587z"/>
	<path style="fill:#231F20;" d="M42.206,195.849c4.48,1.451,9.293-1.007,10.752-5.487v-0.009c2.714-8.414,5.956-16.64,9.702-24.644
		c1.997-4.267,0.154-9.353-4.113-11.349s-9.353-0.154-11.349,4.113l0,0c-4.045,8.653-7.552,17.545-10.505,26.633
		c-1.442,4.489,1.015,9.293,5.504,10.743C42.197,195.849,42.206,195.849,42.206,195.849z"/>
	<path style="fill:#231F20;" d="M66.005,353.161c-4.011-7.868-7.535-15.983-10.539-24.286c-1.604-4.429-6.502-6.724-10.931-5.12
		c-4.429,1.604-6.724,6.502-5.12,10.931c3.251,8.986,7.057,17.766,11.401,26.274c2.022,4.258,7.108,6.076,11.366,4.053
		c4.258-2.022,6.076-7.108,4.053-11.366c-0.068-0.154-0.145-0.299-0.23-0.452C66.005,353.195,66.005,353.161,66.005,353.161z"/>
	<path style="fill:#231F20;" d="M364.638,449.707c-2.142-4.19-7.279-5.854-11.477-3.712c-7.868,4.011-15.983,7.535-24.286,10.539
		c-4.429,1.604-6.724,6.502-5.12,10.931c1.604,4.429,6.502,6.724,10.931,5.12c8.986-3.251,17.766-7.057,26.274-11.401
		C365.141,459.025,366.788,453.888,364.638,449.707z"/>
	<path style="fill:#231F20;" d="M445.995,158.839c4.011,7.868,7.535,15.983,10.539,24.286c1.604,4.429,6.502,6.724,10.931,5.12
		c4.429-1.604,6.724-6.502,5.12-10.931c-3.251-8.986-7.057-17.766-11.401-26.274c-2.022-4.258-7.108-6.076-11.366-4.053
		s-6.076,7.108-4.053,11.366c0.068,0.154,0.145,0.299,0.23,0.452V158.839z"/>
	<path style="fill:#231F20;" d="M147.362,62.293c1.459,2.859,4.395,4.651,7.603,4.651c1.348,0,2.679-0.324,3.874-0.939
		c7.868-4.011,15.983-7.535,24.286-10.539c4.429-1.604,6.724-6.502,5.12-10.931s-6.502-6.724-10.931-5.12
		c-8.986,3.251-17.766,7.057-26.274,11.401C146.859,52.975,145.212,58.112,147.362,62.293z"/>
	<path style="fill:#231F20;" d="M190.353,459.042c-8.414-2.714-16.64-5.956-24.644-9.702c-4.267-1.997-9.353-0.154-11.349,4.113
		s-0.154,9.353,4.113,11.349c8.653,4.045,17.545,7.552,26.633,10.505c0.853,0.273,1.732,0.41,2.628,0.418
		c4.71,0.017,8.55-3.789,8.567-8.499c0.017-3.729-2.398-7.04-5.948-8.166V459.042z"/>
	<path style="fill:#231F20;" d="M469.794,316.151c-4.48-1.451-9.293,1.007-10.752,5.487v0.009
		c-2.714,8.414-5.956,16.64-9.702,24.644c-1.997,4.267-0.154,9.353,4.113,11.349c4.267,1.997,9.353,0.154,11.349-4.113
		c4.045-8.653,7.552-17.545,10.505-26.633c1.442-4.489-1.015-9.293-5.504-10.743C469.803,316.151,469.794,316.151,469.794,316.151z"
		/>
	<path style="fill:#231F20;" d="M353.527,47.198c-8.653-4.045-17.545-7.552-26.633-10.505c-4.557-1.203-9.225,1.51-10.436,6.067
		c-1.118,4.207,1.118,8.585,5.188,10.146c8.414,2.714,16.64,5.956,24.644,9.702c4.267,1.997,9.353,0.154,11.349-4.113
		c1.997-4.267,0.154-9.353-4.113-11.349L353.527,47.198z"/>
	<path style="fill:#231F20;" d="M298.667,128h-25.6V93.867H256V128h-17.067V93.867h-17.067V128h-51.2v17.067H204.8v221.867h-34.133
		V384h51.2v34.133h17.067V384H256v34.133h17.067V384h25.6c32.973-0.034,59.699-26.761,59.733-59.733V307.2
		c-0.034-21.001-11.093-40.439-29.124-51.2c18.031-10.761,29.09-30.199,29.124-51.2v-17.067
		C358.366,154.761,331.639,128.034,298.667,128z M341.333,307.2v17.067c-0.026,23.552-19.115,42.641-42.667,42.667h-76.8v-102.4
		h76.8C322.219,264.559,341.308,283.648,341.333,307.2z M341.333,204.8c-0.026,23.552-19.115,42.641-42.667,42.667h-76.8v-102.4
		h76.8c23.552,0.026,42.641,19.115,42.667,42.667V204.8z"/>
</g>
<g>
</g>
<g>
</g>
<g>
</g>
<g>
</g>
<g>
</g>
<g>
</g>
<g>
</g>
<g>
</g>
<g>
</g>
<g>
</g>
<g>
</g>
<g>
</g>
<g>
</g>
<g>
</g>
<g>
</g>
</svg>
