<?xml version="1.0" encoding="iso-8859-1"?>
<!-- Generator: Adobe Illustrator 19.0.0, SVG Export Plug-In . SVG Version: 6.00 Build 0)  -->
<svg version="1.1" id="Capa_1" xmlns="http://www.w3.org/2000/svg" xmlns:xlink="http://www.w3.org/1999/xlink" x="0px" y="0px"
	 viewBox="0 0 472 472" style="enable-background:new 0 0 472 472;" xml:space="preserve">
<path style="fill:#EFE1D3;" d="M236,424l64-32l0,0v-55.144c0,0-0.008,0-0.016,0.008c-4.384,2.184-8.896,4.128-13.52,5.864
	c-0.92,0.352-1.848,0.688-2.784,1.016c-2.944,1.032-5.92,1.984-8.952,2.832c-2.336,0.664-4.688,1.272-7.064,1.816
	c-1.576,0.352-3.16,0.704-4.76,1c-3.656,0.704-7.36,1.28-11.12,1.696c-0.92,0.104-1.848,0.168-2.776,0.248
	C244.728,351.736,240.4,352,236,352s-8.728-0.264-13.024-0.656c-0.928-0.08-1.856-0.152-2.776-0.248
	c-3.752-0.416-7.456-0.992-11.12-1.696c-1.6-0.304-3.176-0.648-4.76-1c-2.384-0.544-4.736-1.16-7.064-1.816
	c-3.032-0.848-6.008-1.8-8.952-2.832c-0.928-0.328-1.856-0.672-2.784-1.016c-4.624-1.736-9.136-3.68-13.52-5.864h-0.008L172,392l0,0
	L236,424z"/>
<polygon style="fill:#E6D8CA;" points="172.016,352 236,376 300,351.136 300,328 172,328 "/>
<path style="fill:#EFECE8;" d="M420,392H300l-64,32l-64-32H52c-26.512,0-48,21.488-48,48v32h464v-32
	C468,413.488,446.512,392,420,392z"/>
<path style="fill:#C6C3BD;" d="M468,440c0-26.512-21.488-48-48-48H300l-64,32v48h232V440z"/>
<path style="fill:#EFECE8;" d="M283.984,8.36c-7.808-2.76-15.904-4.856-24.264-6.248C256.744,27.656,200.848,48,132,48
	c68.848,0,124.744-20.344,127.712-45.88C251.984,0.832,244.096,0,236,0c-62.672,0-115.84,40.104-135.632,95.992
	C201.648,95.896,283.568,56.776,283.984,8.36z"/>
<path style="fill:#8C8A85;" d="M188.312,343.744c2.936,1.04,5.928,1.976,8.952,2.832c2.336,0.656,4.68,1.28,7.064,1.816
	c1.576,0.36,3.16,0.696,4.76,1c3.664,0.696,7.36,1.288,11.12,1.696c0.92,0.104,1.848,0.168,2.776,0.248
	C227.272,351.728,231.608,352,236,352s8.728-0.272,13.024-0.656c0.928-0.088,1.856-0.144,2.776-0.248
	c3.752-0.408,7.456-1,11.12-1.696c1.592-0.304,3.184-0.64,4.76-1c2.384-0.536,4.728-1.168,7.064-1.816
	c3.024-0.856,6.008-1.792,8.952-2.832c0.936-0.328,1.856-0.672,2.784-1.016c4.616-1.744,9.136-3.688,13.52-5.864
	c45.112-22.448,76.68-67.776,79.608-120.864H372c-17.672,0-32,14.328-32,32s-14.328,32-32,32h-24c0-17.672-14.328-32-32-32h-32
	c-17.672,0-32,14.328-32,32h-24c-17.672,0-32-14.328-32-32s-14.328-32-32-32h-7.592c2.928,53.08,34.496,98.408,79.608,120.864
	c4.384,2.184,8.904,4.12,13.52,5.864C186.456,343.072,187.376,343.416,188.312,343.744z"/>
<path style="fill:#F9EDE0;" d="M244.488,106.64C205.432,129.72,151.576,144,92,144v64c0,2.704,0.256,5.336,0.408,8H100
	c17.672,0,32,14.328,32,32s14.328,32,32,32h24c0-17.672,14.328-32,32-32h32c17.672,0,32,14.328,32,32h24c17.672,0,32-14.328,32-32
	s14.328-32,32-32h7.592c0.152-2.664,0.408-5.296,0.408-8v-64C312.104,144,249.448,127.512,244.488,106.64z"/>
<g>
	<path style="fill:#EFECE8;" d="M355.72,64c-28.728-0.04-52.28-6.24-55.352-14.224C303.432,57.752,326.992,63.952,355.72,64
		c-12.272-18.328-28.696-33.592-47.856-44.664c-1,23.128-12.264,44.736-31.296,63.232C281.688,94.624,322.416,104,372,104
		c-49.584,0-90.312-9.376-95.432-21.432c-9.04,8.784-19.856,16.848-32.08,24.072C249.448,127.512,312.104,144,380,144l0,0
		C380,114.392,371.04,86.88,355.72,64z"/>
	<path style="fill:#EFECE8;" d="M276,80c0,0.872,0.208,1.728,0.568,2.568c19.032-18.504,30.296-40.104,31.296-63.232
		c-7.552-4.36-15.536-8.024-23.88-10.976c-0.408,48.416-82.336,87.536-183.608,87.632C95.048,111.032,92,127.144,92,144l0,0
		c78.224,0,146.664-24.576,184.568-61.432C276.208,81.728,276,80.872,276,80z"/>
</g>
<g>
	<path style="fill:#EFE1D3;" d="M76,144c-17.672,0-32,14.328-32,32s14.328,32,32,32h16v-64H76z"/>
	<path style="fill:#EFE1D3;" d="M396,208c17.672,0,32-14.328,32-32s-14.328-32-32-32h-16v64H396z"/>
</g>
<g>
	<circle style="fill:#4B413A;" cx="180" cy="176" r="16"/>
	<circle style="fill:#4B413A;" cx="292" cy="176" r="16"/>
</g>
<g>
	<path style="fill:#8E7154;" d="M100,104c107.664,0,192-42.168,192-96h-16c0,43.368-80.6,80-176,80V104z"/>
	<path style="fill:#8E7154;" d="M252,0c0,18.88-51.32,40-120,40v16c65.928,0,136-19.624,136-56H252z"/>
	<path style="fill:#8E7154;" d="M260.344,105.576c5.544-3.84,10.744-7.856,15.56-12.056C294.368,107.744,341.472,112,372,112V96
		c-45.2,0-74.88-7.592-84.68-13.536c5.928-6.392,11.056-13.088,15.24-20.072C318.784,71.392,348.752,72,356,72V56
		c-24.848,0-40.832-4.568-46.368-7.888C313.76,37.808,316,27.064,316,16h-16c0,66.168-93.312,120-208,120v16
		c59.96,0,114.448-14.408,154.696-37.776C259.776,139.056,320.168,152,380,152v-16C309.616,136,263.832,118.52,260.344,105.576z"/>
</g>
<g>
	<ellipse style="fill:#F7CDBF;" cx="168" cy="228" rx="20" ry="12"/>
	<ellipse style="fill:#F7CDBF;" cx="304" cy="228" rx="20" ry="12"/>
</g>
<g>
</g>
<g>
</g>
<g>
</g>
<g>
</g>
<g>
</g>
<g>
</g>
<g>
</g>
<g>
</g>
<g>
</g>
<g>
</g>
<g>
</g>
<g>
</g>
<g>
</g>
<g>
</g>
<g>
</g>
</svg>
