<?xml version="1.0" encoding="iso-8859-1"?>
<!-- Generator: Adobe Illustrator 19.0.0, SVG Export Plug-In . SVG Version: 6.00 Build 0)  -->
<svg version="1.1" id="Capa_1" xmlns="http://www.w3.org/2000/svg" xmlns:xlink="http://www.w3.org/1999/xlink" x="0px" y="0px"
	 viewBox="0 0 472 472" style="enable-background:new 0 0 472 472;" xml:space="preserve">
<g>
	<rect x="52" y="112" style="fill:#8C8A85;" width="40" height="32"/>
	<rect x="380" y="112" style="fill:#8C8A85;" width="40" height="32"/>
</g>
<path style="fill:#9BC9A8;" d="M420,384h-96h-24v-47.144c0,0-0.008,0-0.016,0.008c-4.384,2.184-8.896,4.128-13.52,5.864
	c-0.92,0.352-1.848,0.688-2.784,1.016c-2.944,1.032-5.92,1.984-8.952,2.832c-2.336,0.664-4.688,1.272-7.064,1.816
	c-1.576,0.352-3.16,0.704-4.76,1c-3.656,0.704-7.36,1.28-11.12,1.696c-0.92,0.104-1.848,0.168-2.776,0.248
	C244.728,351.736,240.4,352,236,352s-8.728-0.264-13.024-0.656c-0.928-0.08-1.856-0.152-2.776-0.248
	c-3.752-0.416-7.456-0.992-11.12-1.696c-1.6-0.304-3.176-0.648-4.76-1c-2.384-0.544-4.736-1.16-7.064-1.816
	c-3.032-0.848-6.008-1.8-8.952-2.832c-0.928-0.328-1.856-0.672-2.784-1.016c-4.624-1.736-9.136-3.68-13.52-5.864h-0.008L172,384h-24
	H52c-26.512,0-48,21.488-48,48v40h464v-40C468,405.488,446.512,384,420,384z"/>
<polygon style="fill:#8FB599;" points="172.016,352 236,376 300,351.136 300,328 172,328 "/>
<path style="fill:#8E7154;" d="M156,72l32,32l32-32l32,32l32-32l32,32l32-32l32,32V64c0-35.344-28.656-64-64-64H156
	c-35.344,0-64,28.656-64,64v8l32,32L156,72z"/>
<path style="fill:#9BC9A8;" d="M188.312,343.744c2.936,1.04,5.928,1.976,8.952,2.832c2.336,0.656,4.68,1.28,7.064,1.816
	c1.576,0.36,3.16,0.696,4.76,1c3.664,0.696,7.36,1.288,11.12,1.696c0.92,0.104,1.848,0.168,2.776,0.248
	C227.272,351.728,231.608,352,236,352s8.728-0.272,13.024-0.656c0.928-0.088,1.856-0.144,2.776-0.248
	c3.752-0.408,7.456-1,11.12-1.696c1.592-0.304,3.184-0.64,4.76-1c2.384-0.536,4.728-1.168,7.064-1.816
	c3.024-0.856,6.008-1.792,8.952-2.832c0.936-0.328,1.856-0.672,2.784-1.016c4.616-1.744,9.136-3.688,13.52-5.864
	c47.368-23.584,80-72.36,80-128.872v-64v-32v-8l-32-32l-32,32l-32-32l-32,32l-32-32l-32,32l-32-32l-32,32L92,72v40v32v64
	c0,56.512,32.632,105.288,80.016,128.864c4.384,2.184,8.904,4.12,13.52,5.864C186.456,343.072,187.376,343.416,188.312,343.744z
	 M272,196l-12-12L272,196l24-24l-12-12l12,12l24-24l-12-12l12,12l20-20l-20,20l12,12l-12-12l-24,24l12,12l-12-12L272,196l12,12
	L272,196l-20,20L272,196z"/>
<g>
	<polygon style="fill:#8C8A85;" points="420,168 452,168 452,88 420,88 420,112 420,144 	"/>
	<polygon style="fill:#8C8A85;" points="52,88 20,88 20,168 52,168 52,144 52,112 	"/>
</g>
<g>
	<circle style="fill:#4B413A;" cx="180" cy="176" r="16"/>
	<polygon style="fill:#4B413A;" points="334.344,122.344 320,136.688 313.656,130.344 302.344,141.656 308.688,148 296,160.688 
		289.656,154.344 278.344,165.656 284.688,172 272,184.688 265.656,178.344 254.344,189.656 260.688,196 246.344,210.344 
		257.656,221.656 272,207.312 278.344,213.656 289.656,202.344 283.312,196 296,183.312 302.344,189.656 313.656,178.344 
		307.312,172 320,159.312 326.344,165.656 337.656,154.344 331.312,148 345.656,133.656 	"/>
</g>
<g>
	<ellipse style="fill:#F7CDBF;" cx="168" cy="228" rx="20" ry="12"/>
	<ellipse style="fill:#F7CDBF;" cx="304" cy="228" rx="20" ry="12"/>
</g>
<g>
</g>
<g>
</g>
<g>
</g>
<g>
</g>
<g>
</g>
<g>
</g>
<g>
</g>
<g>
</g>
<g>
</g>
<g>
</g>
<g>
</g>
<g>
</g>
<g>
</g>
<g>
</g>
<g>
</g>
</svg>
